<mxfile host="app.diagrams.net" modified="2021-07-02T11:25:30.261Z" agent="5.0 (Macintosh; Intel Mac OS X 10_15_7) AppleWebKit/537.36 (KHTML, like Gecko) Chrome/91.0.4472.114 Safari/537.36" etag="2W3V_SbCeVl0G4nMwb8m" version="14.8.3" type="github">
  <diagram id="KmYJ1_ME1aB9ts054jpT" name="Page-1">
    <mxGraphModel dx="818" dy="509" grid="1" gridSize="10" guides="1" tooltips="1" connect="1" arrows="1" fold="1" page="1" pageScale="1" pageWidth="850" pageHeight="1100" math="0" shadow="0">
      <root>
        <mxCell id="0" />
        <mxCell id="1" parent="0" />
        <mxCell id="2hsHY03kByNTGnTwhIgF-1" value="Actor" style="shape=umlActor;verticalLabelPosition=bottom;verticalAlign=top;html=1;outlineConnect=0;" vertex="1" parent="1">
          <mxGeometry x="150" y="300" width="30" height="60" as="geometry" />
        </mxCell>
        <mxCell id="2hsHY03kByNTGnTwhIgF-2" value="using&amp;nbsp; mobile&amp;nbsp; , pc&amp;nbsp;" style="endArrow=classic;html=1;entryX=0.002;entryY=0.603;entryDx=0;entryDy=0;entryPerimeter=0;exitX=0.5;exitY=0.5;exitDx=0;exitDy=0;exitPerimeter=0;" edge="1" parent="1" source="2hsHY03kByNTGnTwhIgF-1" target="2hsHY03kByNTGnTwhIgF-4">
          <mxGeometry width="50" height="50" relative="1" as="geometry">
            <mxPoint x="400" y="400" as="sourcePoint" />
            <mxPoint x="400" y="280" as="targetPoint" />
          </mxGeometry>
        </mxCell>
        <mxCell id="2hsHY03kByNTGnTwhIgF-3" value="home page" style="ellipse;whiteSpace=wrap;html=1;" vertex="1" parent="1">
          <mxGeometry x="390" y="350" width="120" height="80" as="geometry" />
        </mxCell>
        <mxCell id="2hsHY03kByNTGnTwhIgF-4" value="login page&amp;nbsp;&lt;br&gt;using&amp;nbsp; google&amp;nbsp; or&amp;nbsp; facebook authentication&amp;nbsp;" style="ellipse;whiteSpace=wrap;html=1;" vertex="1" parent="1">
          <mxGeometry x="390" y="240" width="120" height="80" as="geometry" />
        </mxCell>
        <mxCell id="2hsHY03kByNTGnTwhIgF-5" value="" style="endArrow=classic;html=1;" edge="1" parent="1" source="2hsHY03kByNTGnTwhIgF-4" target="2hsHY03kByNTGnTwhIgF-3">
          <mxGeometry width="50" height="50" relative="1" as="geometry">
            <mxPoint x="160" y="370" as="sourcePoint" />
            <mxPoint x="200" y="330" as="targetPoint" />
          </mxGeometry>
        </mxCell>
        <mxCell id="2hsHY03kByNTGnTwhIgF-6" value="Database&amp;nbsp;" style="ellipse;whiteSpace=wrap;html=1;" vertex="1" parent="1">
          <mxGeometry x="630" y="350" width="120" height="80" as="geometry" />
        </mxCell>
        <mxCell id="2hsHY03kByNTGnTwhIgF-7" value="" style="endArrow=classic;html=1;" edge="1" parent="1" source="2hsHY03kByNTGnTwhIgF-6" target="2hsHY03kByNTGnTwhIgF-3">
          <mxGeometry width="50" height="50" relative="1" as="geometry">
            <mxPoint x="400" y="380" as="sourcePoint" />
            <mxPoint x="450" y="330" as="targetPoint" />
          </mxGeometry>
        </mxCell>
        <mxCell id="2hsHY03kByNTGnTwhIgF-8" value="push notifications&amp;nbsp;" style="endArrow=classic;html=1;exitX=0;exitY=0.5;exitDx=0;exitDy=0;" edge="1" parent="1" source="2hsHY03kByNTGnTwhIgF-3" target="2hsHY03kByNTGnTwhIgF-1">
          <mxGeometry width="50" height="50" relative="1" as="geometry">
            <mxPoint x="410" y="440" as="sourcePoint" />
            <mxPoint x="460" y="390" as="targetPoint" />
            <Array as="points">
              <mxPoint x="180" y="360" />
            </Array>
          </mxGeometry>
        </mxCell>
        <mxCell id="2hsHY03kByNTGnTwhIgF-9" value="&lt;h1&gt;al karmel website&lt;/h1&gt;&lt;p&gt;basic website using push notifications for&amp;nbsp; events that happend&amp;nbsp; in Palestine&amp;nbsp;&lt;/p&gt;" style="text;html=1;strokeColor=none;fillColor=none;spacing=5;spacingTop=-20;whiteSpace=wrap;overflow=hidden;rounded=0;" vertex="1" parent="1">
          <mxGeometry x="70" y="150" width="190" height="120" as="geometry" />
        </mxCell>
        <mxCell id="2hsHY03kByNTGnTwhIgF-10" value="External links like wiki&lt;br&gt;" style="ellipse;whiteSpace=wrap;html=1;" vertex="1" parent="1">
          <mxGeometry x="390" y="510" width="120" height="80" as="geometry" />
        </mxCell>
        <mxCell id="2hsHY03kByNTGnTwhIgF-11" value="" style="endArrow=classic;html=1;" edge="1" parent="1" source="2hsHY03kByNTGnTwhIgF-3" target="2hsHY03kByNTGnTwhIgF-10">
          <mxGeometry width="50" height="50" relative="1" as="geometry">
            <mxPoint x="400" y="460" as="sourcePoint" />
            <mxPoint x="450" y="410" as="targetPoint" />
          </mxGeometry>
        </mxCell>
      </root>
    </mxGraphModel>
  </diagram>
</mxfile>
